<svg viewBox="0 0 118 119" fill="none" xmlns="http://www.w3.org/2000/svg">
  <circle cx="59" cy="59.5" r="54.5" stroke="#6C6C6C" stroke-opacity="0.7" stroke-width="9"/>
  <path d="M59 0.5L64.196 10H53.8037L59 0.5Z" fill="#D9D9D9"/>
  <rect x="58" y="109.5" width="2" height="9" fill="#6C6C6C"/>
  <rect x="58" y="0.5" width="2" height="9" fill="#6C6C6C"/>
  <rect x="118" y="58.5" width="2" height="9" transform="rotate(90 118 58.5)" fill="#6C6C6C"/>
  <rect x="9" y="58.5" width="2" height="9" transform="rotate(90 9 58.5)" fill="#6C6C6C"/>
  <path d="M17.5568 65L14.3295 53.3636H16.1761L18.4432 62.375H18.5511L20.9091 53.3636H22.7386L25.0966 62.3807H25.2045L27.4659 53.3636H29.3182L26.0852 65H24.3182L21.8693 56.2841H21.7784L19.3295 65H17.5568Z" fill="#6C6C6C"/>
  <path d="M96.2784 65V53.3636H103.574V54.875H98.0341V58.4205H103.193V59.9261H98.0341V63.4886H103.642V65H96.2784Z" fill="#6C6C6C"/>
</svg>
